<svg width="24" height="24" viewBox="0 0 24 24" fill="none" xmlns="http://www.w3.org/2000/svg">
<path fill-rule="evenodd" clip-rule="evenodd" d="M12.4502 5.69922V8.84922L10.2002 11.0992H13.8002V14.6992L15.5066 11.2864L19.3447 11.5168L16.227 9.71682L18.027 6.59913L14.9534 7.42268L12.4508 5.69994L12.452 5.70232L12.4502 5.69922Z" fill="#25282B"/>
<mask id="path-2-inside-1" fill="white">
<path fill-rule="evenodd" clip-rule="evenodd" d="M12 21C16.9706 21 21 16.9706 21 12C21 11.6547 20.9806 11.314 20.9427 10.9788C20.4973 14.4557 17.527 17.1429 13.9289 17.1429C10.0235 17.1429 6.85752 13.9769 6.85752 10.0714C6.85752 6.47294 9.54539 3.50225 13.023 3.0575C12.6872 3.01951 12.3459 3 12 3C7.02944 3 3 7.02944 3 12C3 16.9706 7.02944 21 12 21Z"/>
</mask>
<path d="M20.9427 10.9788L22.9301 10.7544L18.9589 10.7247L20.9427 10.9788ZM13.023 3.0575L13.2767 5.04134L13.2478 1.07017L13.023 3.0575ZM19 12C19 15.866 15.866 19 12 19V23C18.0751 23 23 18.0751 23 12H19ZM18.9553 11.2033C18.9848 11.464 19 11.7299 19 12H23C23 11.5796 22.9763 11.1639 22.9301 10.7544L18.9553 11.2033ZM18.9589 10.7247C18.6398 13.2162 16.5078 15.1429 13.9289 15.1429V19.1429C18.5461 19.1429 22.3549 15.6952 22.9265 11.2329L18.9589 10.7247ZM13.9289 15.1429C11.1281 15.1429 8.85752 12.8723 8.85752 10.0714H4.85752C4.85752 15.0814 8.91894 19.1429 13.9289 19.1429V15.1429ZM8.85752 10.0714C8.85752 7.49224 10.7847 5.36004 13.2767 5.04134L12.7692 1.07365C8.30609 1.64445 4.85752 5.45364 4.85752 10.0714H8.85752ZM12 5C12.2706 5 12.5369 5.01526 12.7981 5.04482L13.2478 1.07017C12.8376 1.02376 12.4212 1 12 1V5ZM5 12C5 8.13401 8.13401 5 12 5V1C5.92487 1 1 5.92487 1 12H5ZM12 19C8.13401 19 5 15.866 5 12H1C1 18.0751 5.92487 23 12 23V19Z" fill="black" mask="url(#path-2-inside-1)"/>
</svg>
