<svg width="24" height="24" viewBox="0 0 24 24" fill="none" xmlns="http://www.w3.org/2000/svg">
<path d="M4 13.3093V8.79254C4 7.56582 4.74685 6.4627 5.88583 6.00711L10.0796 4.32959C10.7644 4.0557 11.526 4.04361 12.219 4.29564L17.0252 6.04334C18.2108 6.47446 19 7.6012 19 8.86272V13.1851C19 13.881 18.762 14.5578 18.3 15.0781C16.4081 17.2093 13.1508 20.3329 11.1429 20.3329C9.1187 20.3329 6.19829 17.1586 4.56429 15.0266C4.18741 14.5349 4 13.9288 4 13.3093Z" stroke="black" stroke-width="2"/>
<circle cx="7.92885" cy="13.1906" r="1.07143" fill="black"/>
<circle cx="11.5001" cy="13.1906" r="1.07143" fill="black"/>
<circle cx="15.0714" cy="13.1906" r="1.07143" fill="black"/>
</svg>
